<?xml version="1.0" standalone="no"?>
<!DOCTYPE svg PUBLIC "-//W3C//DTD SVG 20010904//EN"
 "http://www.w3.org/TR/2001/REC-SVG-20010904/DTD/svg10.dtd">
<svg version="1.0" xmlns="http://www.w3.org/2000/svg"
 width="512.000000pt" height="512.000000pt" viewBox="0 0 512.000000 512.000000"
 preserveAspectRatio="xMidYMid meet">

<g transform="translate(0.000000,512.000000) scale(0.100000,-0.100000)"
fill="#ffffff" stroke="none">
<path d="M1750 5113 c-54 -10 -999 -325 -1059 -353 -123 -58 -239 -202 -276
-341 -22 -81 -22 -3637 0 -3718 34 -130 129 -254 245 -323 44 -26 212 -87 564
-204 453 -151 508 -167 585 -172 210 -12 407 103 501 291 22 44 40 86 40 93 0
12 65 14 393 14 237 0 417 4 453 11 195 35 368 198 419 396 21 82 22 900 1
941 -57 109 -193 136 -279 54 -58 -54 -57 -48 -57 -474 0 -239 -4 -408 -10
-430 -14 -50 -55 -97 -105 -119 -36 -17 -73 -19 -412 -19 l-373 0 0 1800 0
1800 375 0 c409 0 419 -1 471 -57 14 -15 31 -39 37 -53 8 -17 13 -163 17 -436
l5 -411 28 -36 c71 -93 200 -98 276 -11 51 57 53 82 49 518 -4 379 -5 405 -26
467 -42 126 -145 249 -259 312 -29 15 -86 36 -129 47 -71 18 -111 20 -473 20
l-396 0 -13 43 c-35 110 -150 240 -264 298 -95 48 -230 69 -328 52z m142 -363
c41 -12 103 -75 115 -117 5 -16 8 -953 8 -2083 0 -1896 -1 -2057 -17 -2085
-34 -62 -102 -105 -168 -105 -25 0 -946 306 -988 329 -12 6 -34 28 -49 48
l-28 36 0 1787 0 1787 28 36 c15 20 37 42 49 48 41 22 962 329 987 329 15 0
42 -5 63 -10z"/>
<path d="M3945 3227 c-73 -41 -106 -119 -84 -199 9 -34 34 -66 125 -159 63
-63 114 -118 114 -122 0 -4 -276 -8 -614 -9 -606 -3 -615 -3 -643 -24 -41 -30
-71 -79 -78 -128 -13 -82 49 -172 132 -195 25 -7 245 -11 622 -11 l585 0 -116
-117 c-125 -128 -145 -163 -134 -237 19 -116 143 -187 251 -142 50 21 591 569
606 614 17 51 6 125 -24 170 -48 68 -540 550 -580 567 -52 22 -115 19 -162 -8z"/>
</g>
</svg>
